<mxfile host="app.diagrams.net" modified="2023-04-24T16:00:28.418Z" agent="Mozilla/5.0 (Windows NT 10.0; Win64; x64) AppleWebKit/537.36 (KHTML, like Gecko) Chrome/111.0.0.0 Safari/537.36" etag="Yhl6bvnGODcZa50JZppq" version="21.2.1" type="github">
  <diagram name="Page-1" id="c7488fd3-1785-93aa-aadb-54a6760d102a">
    <mxGraphModel dx="1434" dy="764" grid="1" gridSize="10" guides="1" tooltips="1" connect="1" arrows="1" fold="1" page="1" pageScale="1" pageWidth="1100" pageHeight="850" background="none" math="0" shadow="0">
      <root>
        <mxCell id="0" />
        <mxCell id="1" parent="0" />
        <mxCell id="ryqElCYvrheLSjMD8XR6-3" value="" style="edgeStyle=orthogonalEdgeStyle;rounded=0;orthogonalLoop=1;jettySize=auto;html=1;" edge="1" parent="1" source="ryqElCYvrheLSjMD8XR6-1" target="ryqElCYvrheLSjMD8XR6-2">
          <mxGeometry relative="1" as="geometry" />
        </mxCell>
        <mxCell id="ryqElCYvrheLSjMD8XR6-1" value="app" style="rounded=0;whiteSpace=wrap;html=1;" vertex="1" parent="1">
          <mxGeometry x="340" y="50" width="120" height="50" as="geometry" />
        </mxCell>
        <mxCell id="ryqElCYvrheLSjMD8XR6-5" value="" style="edgeStyle=orthogonalEdgeStyle;rounded=0;orthogonalLoop=1;jettySize=auto;html=1;" edge="1" parent="1" source="ryqElCYvrheLSjMD8XR6-8" target="ryqElCYvrheLSjMD8XR6-4">
          <mxGeometry relative="1" as="geometry" />
        </mxCell>
        <mxCell id="ryqElCYvrheLSjMD8XR6-7" value="" style="edgeStyle=orthogonalEdgeStyle;rounded=0;orthogonalLoop=1;jettySize=auto;html=1;" edge="1" parent="1" source="ryqElCYvrheLSjMD8XR6-2" target="ryqElCYvrheLSjMD8XR6-6">
          <mxGeometry relative="1" as="geometry" />
        </mxCell>
        <mxCell id="ryqElCYvrheLSjMD8XR6-2" value="login" style="rhombus;whiteSpace=wrap;html=1;rounded=0;" vertex="1" parent="1">
          <mxGeometry x="360" y="170" width="80" height="80" as="geometry" />
        </mxCell>
        <mxCell id="ryqElCYvrheLSjMD8XR6-4" value="Login and access user features" style="whiteSpace=wrap;html=1;rounded=0;" vertex="1" parent="1">
          <mxGeometry x="570" y="180" width="120" height="60" as="geometry" />
        </mxCell>
        <mxCell id="ryqElCYvrheLSjMD8XR6-6" value="exit with error" style="ellipse;whiteSpace=wrap;html=1;rounded=0;" vertex="1" parent="1">
          <mxGeometry x="200" y="170" width="80" height="80" as="geometry" />
        </mxCell>
        <mxCell id="ryqElCYvrheLSjMD8XR6-9" value="" style="edgeStyle=orthogonalEdgeStyle;rounded=0;orthogonalLoop=1;jettySize=auto;html=1;" edge="1" parent="1" source="ryqElCYvrheLSjMD8XR6-2" target="ryqElCYvrheLSjMD8XR6-8">
          <mxGeometry relative="1" as="geometry">
            <mxPoint x="440" y="210" as="sourcePoint" />
            <mxPoint x="570" y="210" as="targetPoint" />
          </mxGeometry>
        </mxCell>
        <mxCell id="ryqElCYvrheLSjMD8XR6-8" value="Login Success" style="text;html=1;strokeColor=none;fillColor=none;align=center;verticalAlign=middle;whiteSpace=wrap;rounded=0;" vertex="1" parent="1">
          <mxGeometry x="470" y="195" width="60" height="30" as="geometry" />
        </mxCell>
      </root>
    </mxGraphModel>
  </diagram>
</mxfile>
